<?xml version="1.0" encoding="utf-8"?>
<!-- Generator: Adobe Illustrator 23.0.1, SVG Export Plug-In . SVG Version: 6.00 Build 0)  -->
<svg version="1.1" id="Layer_1" xmlns="http://www.w3.org/2000/svg" xmlns:xlink="http://www.w3.org/1999/xlink" x="0px" y="0px"
	 viewBox="0 0 128 128" style="enable-background:new 0 0 128 128;" xml:space="preserve">
<style type="text/css">
	.st0{fill:#00AA84;}
	.st1{fill:#FFFFFF;}
</style>
<g>
	<path class="st0" d="M101.3,28.5c-2.2-5-8.6-9.1-14.1-9.1H74c-5.5,0-14.5,0-20,0H40.7c-5.5,0-11.8,4.1-14.1,9.1L8.7,68.7
		c-2.2,5-0.4,11.7,4.2,14.8l42.9,29.7c4.5,3.1,11.9,3.1,16.4,0l42.9-29.7c4.5-3.1,6.4-9.8,4.2-14.8L101.3,28.5z"/>
</g>
<g>
	<path class="st1" d="M107.5,66.7L93.7,33.1c-0.7-1.7-2.3-2.1-3.5-0.8l-6.2,6.6c-1.2,1.3-1.8,3.9-1.4,5.7l8.8,35.3
		c0.5,1.8,2,2.4,3.3,1.3l11.4-9.3C107.6,70.8,108.1,68.5,107.5,66.7z"/>
	<path class="st1" d="M79.8,44.2c-0.4-1.9-2-4.1-3.4-4.9L68,34.7c-1.5-0.8-2.6,0.2-2.6,2.1v35.3c0,2,1.3,3.9,2.8,4.5l17,5.6
		c1.6,0.5,2.5-0.6,2.1-2.5L79.8,44.2z"/>
	<path class="st1" d="M43.9,38.9l-6.2-6.6c-1.2-1.3-2.8-0.9-3.5,0.8L20.5,66.7c-0.7,1.7-0.2,4,1.2,5.1l11.4,9.3
		c1.4,1.1,2.8,0.5,3.3-1.3l8.8-35.3C45.7,42.7,45.1,40.2,43.9,38.9z"/>
	<path class="st1" d="M60,34.7l-8.3,4.5c-1.5,0.8-3,3-3.4,4.8l-7.6,35.1c-0.4,1.8,0.5,3,2.1,2.5l17-5.5c1.5-0.5,2.8-2.5,2.8-4.4
		V36.8C62.6,34.9,61.4,34,60,34.7z"/>
</g>
</svg>
